<?xml version="1.0" standalone="no"?>
<!DOCTYPE svg PUBLIC "-//W3C//DTD SVG 20010904//EN"
 "http://www.w3.org/TR/2001/REC-SVG-20010904/DTD/svg10.dtd">
<svg version="1.0" xmlns="http://www.w3.org/2000/svg"
 width="948.000000pt" height="948.000000pt" viewBox="0 0 948.000000 948.000000"
 preserveAspectRatio="xMidYMid meet">
<metadata>
Created by potrace 1.14, written by Peter Selinger 2001-2017
</metadata>
<g transform="translate(0.000000,948.000000) scale(0.100000,-0.100000)"
fill="#000000" stroke="none">
<path d="M0 4740 l0 -4740 4740 0 4740 0 0 4740 0 4740 -4740 0 -4740 0 0
-4740z m7450 1385 l0 -2695 267 -2 267 -3 321 -545 321 -545 -588 -3 -588 -2
0 -505 0 -505 -2700 0 -2700 0 0 1929 0 1929 510 7 511 7 400 414 c221 228
404 414 408 414 12 0 639 -1187 645 -1221 5 -30 -95 -249 -778 -1714 l-784
-1680 347 -3 c190 -1 350 0 356 2 5 2 343 681 750 1509 406 829 742 1504 745
1501 2 -3 96 -422 206 -930 111 -509 204 -927 206 -930 3 -2 581 -3 1285 -2
l1281 3 -178 325 -178 325 -835 9 -835 8 -6 22 c-3 11 -80 410 -171 884 l-165
864 -271 526 c-149 290 -314 609 -366 710 l-94 182 512 -2 513 -3 287 -479
c158 -263 291 -482 296 -486 9 -9 449 184 446 197 -1 4 -174 305 -386 668
l-384 660 -1179 0 -1178 0 -536 -645 -536 -645 -422 -3 -422 -2 0 1575 0 1575
2700 0 2700 0 0 -2695z m-5029 -5025 c99 -72 187 -134 194 -136 9 -4 35 36 79
119 l66 124 2362 7 2362 7 398 -398 c219 -219 398 -401 398 -405 0 -4 -735 -5
-1632 -2 l-1633 6 -477 244 -478 244 -366 -2 -367 -3 270 -240 270 -240 -506
-3 -506 -2 -410 411 -410 411 102 -5 103 -5 181 -132z"/>
<path d="M3750 8364 c-36 -7 -103 -32 -150 -55 -207 -102 -350 -332 -350 -564
0 -232 143 -462 350 -564 255 -125 533 -80 731 118 250 251 250 641 0 892
-155 155 -370 219 -581 173z"/>
</g>
</svg>
